<svg xmlns="http://www.w3.org/2000/svg" width="49.748" height="54.75" viewBox="0 0 49.748 54.75">
  <path id="Path_615" data-name="Path 615" d="M1668.056,1134.384l6.4-14.171-11.637,1.2-4.9-.693-.039,1.24-.525-.428-1.064-.869,1.628-.318.27-7.889-1.466-1.011-10.444,1.417-13.69-1.417V1109.1l-4.7-.283-2.711,4.3,1.412,50.357,2.7.092,1.064-1.757.539-20.885,1.341-2.472,13.222.8.962-2.269.609.754,1.519,1.523-1.876.039-.451,8.768,1.792.927,13.266-1.69,12.794.874.852-1.227Zm-14.458-13.769,3.946,3.774.252.177-.1,3-3.518-3.166-3.823-3.863Zm-7.231,1.814-.088-1.24,1.646-.667,6.362,6.891,3.329,3.02.3,3.6-4.9-5.306Zm5.01,16.784-4.9-5.527.066-2.963,7.638,8.41Zm6.092-.579-.538.009-4.839-4.706-5.513-5.734.027-.769-.125-2.366,6.017,6.9,5.624,4.415.067.821Z" transform="translate(-1625.182 -1108.815)" fill="#f2dc5d"/>
</svg>
