<svg xmlns="http://www.w3.org/2000/svg" width="736.619" height="794.603" viewBox="0 0 736.619 794.603">
  <path id="Path_26978" data-name="Path 26978" d="M-594,1115.209V1102.83c.568-4.306,1.013-8.632,1.728-12.913,2.209-13.239,3.466-26.746,6.977-39.636,13.079-48.02,40.133-89.055,68.129-129.119,22.958-32.852,43.711-66.989,61.2-102.748,25.158-51.446,64.386-88.509,112.3-117.142,11.792-7.045,16.351-15.812,18.383-27.6,1.036-6.009,4.122-12.128-1.462-18.2-1.694-1.844-1.5-7.664.173-9.946,5.056-6.89,4.071-14.181,3.94-21.8-.258-15.021-.407-30.085.439-45.072,1.054-18.689,3.509-37.3,4.724-55.978,1.857-28.559,6.14-56.629,15.516-83.736,5.086-14.7,11.109-29.261,23.027-39.741,5.668-4.985,14.162-6.648,20.242-11.3,15-11.477,30.973-20.494,49.432-25.1,12.756-3.185,25.269-4.322,38.1-.4,19.317,5.9,35.491,16.894,49.623,30.82,26.4,26.019,46.174,57.043,63.94,89.2,10.333,18.71,15.7,39.924,12.853,61.1-2.941,21.878.909,43.688-5.162,66.03-5.227,19.237,3.01,39.822,21.6,53.083,4.89,3.489,8.743,8.432,13.072,12.708q-.615,1.1-1.229,2.193c-4.027-.6-8.054-1.2-14.326-2.142l20.305,25.554-1.132,1.726-32.879-15.426,11.573,15.058-3.486-.232c8.828,12.56,17.714,24.993,26.38,37.581C3.1,758.707,20.066,776.3,28.36,797.3c25.476,64.5,63.878,122.419,91.176,185.925,10.19,23.706,20.579,46.372,18.913,72.978-.976,15.6-7.1,23.573-22.381,25.457a43.53,43.53,0,0,0-8.4,2.212c-11.866,3.993-23.664,8.19-35.555,12.107-18.3,6.029-35.5,2.785-51.03-5.841-5.691,2.706-10.713,5.85-16.185,7.509-7.028,2.129-13.737,3.493-11.87,13.407.265,1.413-1.834,3.408-3.072,4.945-7.309,9.075-17.469,13.245-28.147,16.922-9.574,3.3-19.476,6.729-23.506,17.658H-303.975c-3.7-1.088-7.385-3.022-11.12-3.136-46.979-1.427-94-1.818-140.936-4.073-36.561-1.756-73-5.921-109.522-8.662-13.256-1-23.662-5.213-27.655-19.166C-593.257,1115.37-593.726,1115.317-594,1115.209Z" transform="translate(596 -357.975)" fill="none" stroke="#f2dc5d" stroke-width="4"/>
</svg>
