<svg xmlns="http://www.w3.org/2000/svg" width="92.299" height="88.387" viewBox="0 0 92.299 88.387">
  <g id="elation-brandmark-logo" transform="translate(-1068.6 -1183.803)">
    <path id="Path_616" data-name="Path 616" d="M1125.818,1268.428c-23.13,5.765-39.209,9.775-54.844-26.42-9.451-21.884,10.83-51.574,33.961-57.339s49.042,18.3,54.811,41.427S1148.944,1262.659,1125.818,1268.428Z" transform="translate(0 0)" fill="#0cce6b"/>
    <g id="Group_24" data-name="Group 24" transform="translate(1089.886 1204.137)">
      <path id="Path_617" data-name="Path 617" d="M1100.145,1210.688a6.008,6.008,0,0,1-2.335,3.65,7.551,7.551,0,0,1-4.6,1.351,7.247,7.247,0,0,1-5.187-1.975c-1.4-1.312-2.145-3.254-2.26-6.037l22.9.506a21.828,21.828,0,0,0,.281-3.325,15.361,15.361,0,0,0-1.887-7.643,13.564,13.564,0,0,0-5.363-5.278,16.482,16.482,0,0,0-8.093-1.917,16.877,16.877,0,0,0-8.123,1.917,13.5,13.5,0,0,0-5.533,5.563,19.446,19.446,0,0,0,0,17.064,13.722,13.722,0,0,0,5.533,5.556,17.888,17.888,0,0,0,15.2.48,13.851,13.851,0,0,0,5.219-4.061,13.471,13.471,0,0,0,1.995-3.6Zm-11.959-12.433a7.842,7.842,0,0,1,5.419-1.972,7.649,7.649,0,0,1,5.33,1.972,6.385,6.385,0,0,1,2,5.51l-15.177.291A8.07,8.07,0,0,1,1088.186,1198.255Z" transform="translate(-1068.598 -1190.021)" fill="#fff"/>
      <path id="Path_618" data-name="Path 618" d="M1121.015,1198.727l-1.243,1.612c-4.428,5.726-17.09,17.636-39.042,4.52l-1.55-.926-4.072,8.061,1.387.791c.18.1,11.606,6.5,24.729,4.951,7.646-.9,15.86-4.493,22.773-13.581l.837-1.1Z" transform="translate(-1075.109 -1170.257)" fill="#390049"/>
    </g>
  </g>
</svg>
