<svg xmlns="http://www.w3.org/2000/svg" width="666.043" height="664.34" viewBox="0 0 666.043 664.34">
  <path id="Union_1" data-name="Union 1" d="M489.045,616.724l-25.536-31.379-45.984,8.465-16.876,27.277,7.637,36.016L313.4,659.262l3.659-106.954-38.658,8.748-33.827-25.1V499.942l33.827-20.736,37.449,5.435-4.627-72.029,11.793-29.2,71.616,3.571,30.263-9.634-13-29.133,20.484-24.834,35.566-4.231L495.6,350.957l-9.59,29.434,90.171-2.028,10.732,35.7-9.32,68.59-36.154-8.467L518.51,491.751,507.6,531.591l40.029,23.962,30.149-2.146,1.23,100.71-107.374,9.1ZM114.706,422.453,95.06,395.171l13.757-32.617-21.274-14.51-62.879,5.8L0,324.83l4.072-70.346,44.779,6.5,27.658-27.62,4.363-32.46L57.558,176.83l-51.55,9.515L6.89,77.8l95.834-.589L96.165,99.838l20.725,35.039,34.944,5.441,28.355-20.139,10.268-28.964-8.017-21.048,49.714,1.467,45.707-2.177,2.9,87.059,11.367,22.556,32.4,2.423,17.461,16.412,4.586,27-11.83,18.96-33.915,13.18-17.892-6.283-6.169,33.8-2.223,65.095-98.776,1.3L170.8,361.6l18.339,23.022L162.722,429Zm243.645-66.847L329.8,323.372,318.443,306.8l-.22-32.981,8.146-4,38.29,45.74,29.979,22.273-2.258,24.652Zm189.283,1.849L523.759,361.6l2.579-12.878L496.8,318.188l-5.309-14.68-10.864-2.035-51.99-53.739-65.221-52.781L352.734,170.3l-34.511-9.451-3.79-11.229-2.5-43.084,1.2-1.418L492.756,267.635,583.438,361.6ZM316.184,355.6l-1.229-26.5,19.8,26.5ZM507.691,247.269,334.745,79.707l1.85-2.189,43.016,3.967,68.584,63.16L592.272,287.3l-1.664,49.876ZM374.045,290.225l-33.219-29.208,22.908-11.247,2.147-24.237L431.269,296.3l-26.277,21.8Zm85.649-168.4L428.332,79.394,415.743,69.058,394.637,28.352l21.106-14.177L517.9,132.909,636.235,249.228l-30.589-5.36L597.7,261.02Zm143.413,58.2,38.885-2.329,17.66,16.844L665,220.428,654.469,236ZM514.937,95.8,503.515,77.26l37.768,2.02,46.649,45.031.773,22.487,3.056,22.662Zm63.153-7.991-9.32-10.292,22.989-.258v18.4ZM436.171,8.015,456.084,0l24.653,15.407L495.6,44.772l-7.67,22.4Z" transform="translate(0.511 0.559)" fill="#f2dc5d" stroke="rgba(0,0,0,0)" stroke-width="1"/>
</svg>
