<svg xmlns="http://www.w3.org/2000/svg" width="666.043" height="650.269" viewBox="0 0 666.043 650.269">
  <path id="Path_580" data-name="Path 580" d="M1779.054,1062.728l49.714,1.467,45.707-2.177,2.9,87.059,11.367,22.556,32.4,2.422,17.46,16.413,4.586,27-11.83,18.96-33.915,13.18-17.893-6.283-6.17,33.8-2.222,65.095-98.776,1.3-4.965,10.644,18.339,23.021-26.421,44.382-48.017-6.551-19.645-27.281,13.757-32.617-21.275-14.51-62.878,5.805-24.665-29.02,4.073-70.347,44.779,6.5,27.658-27.621,4.364-32.46-23.314-24.075-51.551,9.515.882-108.543,95.834-.589-6.558,22.625,20.724,35.039,34.944,5.44,28.355-20.139,10.268-28.964Z" transform="translate(-1596.103 -1006.075)" fill="#f2dc5d" stroke="rgba(0,0,0,0)" stroke-width="1"/>
  <path id="Path_581" data-name="Path 581" d="M1668,1160.311l11.793-29.2,71.616,3.571,30.263-9.634-13-29.133,20.484-24.834,35.566-4.23,27.646,31.807-9.59,29.434,90.171-2.028,10.732,35.7-9.32,68.59-36.154-8.466-22.928,17.566-10.907,39.84,40.029,23.961,30.15-2.146,1.229,100.71-107.374,9.1,17.409-46.493-25.536-31.379-45.984,8.465-16.876,27.277,7.638,36.017-94.882,2.158,3.659-106.954-38.658,8.749-33.827-25.1v-36.011l33.827-20.736,37.449,5.435Z" transform="translate(-1356.257 -761.212)" fill="#f2dc5d" stroke="rgba(0,0,0,0)" stroke-width="1"/>
  <g id="Group_16" data-name="Group 16" transform="translate(312.445 0.662)">
    <path id="Path_583" data-name="Path 583" d="M1625.356,1060.949l-21.106,14.177,21.106,40.706,12.589,10.336,31.362,42.433,138,139.193,7.951-17.153,30.589,5.36-118.333-116.319Z" transform="translate(-1521.546 -1060.949)" fill="#f2dc5d" stroke="rgba(0,0,0,0)" stroke-width="1"/>
    <path id="Path_584" data-name="Path 584" d="M1608.283,1066.442l51.362,55.969,10.531-15.571-5.347-25.882-17.66-16.844Z" transform="translate(-1317.11 -900.586)" fill="#f2dc5d" stroke="rgba(0,0,0,0)" stroke-width="1"/>
    <path id="Path_585" data-name="Path 585" d="M1606.356,1062.169l11.422,18.539,76.825,73.66-3.056-22.662-.773-22.487-46.649-45.031Z" transform="translate(-1414.775 -999.085)" fill="#f2dc5d" stroke="rgba(0,0,0,0)" stroke-width="1"/>
    <path id="Path_586" data-name="Path 586" d="M1628.264,1065.039l-2.146,24.237-22.909,11.247,33.219,29.208,30.947,27.877,26.277-21.8Z" transform="translate(-1574.317 -853.681)" fill="#f2dc5d" stroke="rgba(0,0,0,0)" stroke-width="1"/>
    <path id="Path_587" data-name="Path 587" d="M1776.036,1231.926l82.918,89.9,1.664-49.876L1716.541,1129.3l-68.584-63.16-43.016-3.967-1.85,2.189Z" transform="translate(-1580.279 -998.832)" fill="#f2dc5d" stroke="rgba(0,0,0,0)" stroke-width="1"/>
    <path id="Path_588" data-name="Path 588" d="M1783.472,1225.226l-179.618-162.517-1.205,1.418,2.5,43.084,3.79,11.229,34.511,9.451,10.681,24.652,65.221,52.781,51.99,53.739,10.864,2.035,5.309,14.68,29.54,30.531-2.579,12.878,23.874-4.142,35.805,4.142Z" transform="translate(-1602.649 -971.766)" fill="#f2dc5d" stroke="rgba(0,0,0,0)" stroke-width="1"/>
    <path id="Path_589" data-name="Path 589" d="M1649.207,1111.635l-38.29-45.74-8.146,4,.219,32.981,11.353,16.576,28.555,32.234,34.03,6.878,2.258-24.652Z" transform="translate(-1596.481 -810.252)" fill="#f2dc5d" stroke="rgba(0,0,0,0)" stroke-width="1"/>
  </g>
</svg>
