<svg id="Group_17" data-name="Group 17" xmlns="http://www.w3.org/2000/svg" width="57.813" height="57.658" viewBox="0 0 57.813 57.658">
  <path id="Path_580" data-name="Path 580" d="M1612.474,1062.08l4.322.128,3.974-.189.252,7.569.988,1.961,2.817.211,1.518,1.427.4,2.348-1.029,1.648-2.948,1.146-1.556-.546-.536,2.938-.193,5.659-8.587.113-.432.925,1.594,2-2.3,3.858-4.175-.569-1.708-2.372,1.2-2.836-1.85-1.261-5.467.5-2.144-2.523.354-6.116,3.893.565,2.4-2.4.379-2.822-2.027-2.093-4.482.827.077-9.437,8.332-.051-.57,1.967,1.8,3.046,3.038.473,2.465-1.751.893-2.518Z" transform="translate(-1596.613 -1055.98)" fill="#f2dc5d"/>
  <path id="Path_581" data-name="Path 581" d="M1607.141,1074.975l1.025-2.539,6.226.311,2.631-.838-1.13-2.533,1.781-2.159,3.092-.368,2.4,2.765-.834,2.559,7.839-.176.933,3.1-.81,5.963-3.143-.736-1.993,1.527-.948,3.464,3.48,2.083,2.621-.187.107,8.756-9.335.791,1.513-4.042-2.22-2.728-4,.736-1.467,2.371.664,3.131-8.249.188.318-9.3-3.361.761-2.941-2.182v-3.131l2.941-1.8,3.256.472Z" transform="translate(-1580.083 -1039.104)" fill="#f2dc5d"/>
  <path id="Path_582" data-name="Path 582" d="M1606.785,1060.674l2.143,1.339,1.292,2.553-.667,1.947-4.5-5.143Z" transform="translate(-1567.134 -1060.674)" fill="#f2dc5d"/>
  <g id="Group_16" data-name="Group 16" transform="translate(27.119 1.232)">
    <path id="Path_583" data-name="Path 583" d="M1606.085,1060.949l-1.835,1.233,1.835,3.539,1.095.9,2.727,3.689,12,12.1.691-1.491,2.659.466-10.287-10.112Z" transform="translate(-1597.06 -1060.949)" fill="#f2dc5d"/>
    <path id="Path_584" data-name="Path 584" d="M1608.283,1064.315l4.465,4.866.915-1.354-.465-2.25-1.535-1.464Z" transform="translate(-1582.969 -1049.896)" fill="#f2dc5d"/>
    <path id="Path_585" data-name="Path 585" d="M1606.356,1062.169l.993,1.612,6.679,6.4-.266-1.97-.067-1.955-4.056-3.915Z" transform="translate(-1589.701 -1056.685)" fill="#f2dc5d"/>
    <path id="Path_586" data-name="Path 586" d="M1605.387,1065.039l-.187,2.107-1.992.978,2.888,2.539,2.69,2.424,2.285-1.9Z" transform="translate(-1600.697 -1046.664)" fill="#f2dc5d"/>
    <path id="Path_587" data-name="Path 587" d="M1618.126,1076.932l7.209,7.816.145-4.336-12.526-12.4-5.963-5.491-3.74-.345-.161.19Z" transform="translate(-1601.108 -1056.667)" fill="#f2dc5d"/>
    <path id="Path_588" data-name="Path 588" d="M1618.369,1076.838l-15.615-14.129-.1.123.217,3.746.33.976,3,.822.929,2.143,5.67,4.589,4.52,4.672.945.177.461,1.276,2.568,2.654-.224,1.12,2.076-.36,3.113.36Z" transform="translate(-1602.649 -1054.803)" fill="#f2dc5d"/>
    <path id="Path_589" data-name="Path 589" d="M1606.807,1069.872l-3.329-3.977-.708.348.019,2.867.987,1.441,2.482,2.8,2.958.6.2-2.143Z" transform="translate(-1602.224 -1043.67)" fill="#f2dc5d"/>
  </g>
  <path id="Path_590" data-name="Path 590" d="M1602.707,1067.043l.107,2.3h1.614Z" transform="translate(-1575.325 -1038.431)" fill="#f2dc5d"/>
  <path id="Path_591" data-name="Path 591" d="M1609.618,1063.769v-1.6l-2,.022.81.895Z" transform="translate(-1558.172 -1055.453)" fill="#f2dc5d"/>
</svg>
