<svg xmlns="http://www.w3.org/2000/svg" width="54.955" height="54.512" viewBox="0 0 54.955 54.512">
  <path id="Path_578" data-name="Path 578" d="M1587.922,1104.488l-5.763-2.754-1.6-.273.035.15-.488,1.913-2.644-2.6,3.1.536-3.233-13.535-7.993-3.374-12.854-1.03-10.993,1.228-6.792,3.519-2.776,8.182.722,13.54,2.965,4.645,3.277.3-1.258,5.454,7.426-5.371.682.018.326-1.882,2.168,1.957-2.494-.075-.633,3.656,1.724,10.113,6.339,3.431,18.95.5,5.076,5.292-.251-5.675,4.461-.907,4.016-4.724,1.461-13.535Zm-31.812,10.747-1.623-1.316-3.867-4,.373-2.161,8.028,7.479.075.083Zm7.056.211-1.175-.871-9.924-9.555,1.861-1.32,8.824,8.2,3.15,3.633Zm7.257-.128-8.59-7.939-5.055-5.7,1.276-.9,3.791,3.009,5.551,4.491,4.426,4.575.757,1.161Zm4.8-2.894-2.366-2.45-10.676-9.665,3.567-.189,8.38,8.12,2.873,3.11Zm3.444-3.286-9.572-9.022-.158-.163,2.208-.114,1.39.237,6.717,6.775Z" transform="translate(-1535.918 -1083.522)" fill="#f2dc5d"/>
</svg>
